<svg xmlns="http://www.w3.org/2000/svg" width="256" height="256" viewBox="0 0 256 256" role="img" aria-labelledby="title desc">
  <title id="title">Yes and No Wheel favicon</title>
  <desc id="desc">A modern yes and no decision wheel favicon.</desc>
  <defs>
    <linearGradient id="bg" x1="44" y1="36" x2="210" y2="220" gradientUnits="userSpaceOnUse">
      <stop offset="0" stop-color="#0f172a"/>
      <stop offset="1" stop-color="#111827"/>
    </linearGradient>
    <linearGradient id="ring" x1="52" y1="48" x2="204" y2="208" gradientUnits="userSpaceOnUse">
      <stop offset="0" stop-color="#67e8f9"/>
      <stop offset="0.52" stop-color="#38bdf8"/>
      <stop offset="1" stop-color="#fb7185"/>
    </linearGradient>
    <linearGradient id="yesFill" x1="60" y1="72" x2="146" y2="180" gradientUnits="userSpaceOnUse">
      <stop offset="0" stop-color="#34d399"/>
      <stop offset="1" stop-color="#14b8a6"/>
    </linearGradient>
    <linearGradient id="noFill" x1="192" y1="76" x2="116" y2="190" gradientUnits="userSpaceOnUse">
      <stop offset="0" stop-color="#fb7185"/>
      <stop offset="1" stop-color="#f97316"/>
    </linearGradient>
    <clipPath id="wheelClip">
      <circle cx="128" cy="134" r="88"/>
    </clipPath>
  </defs>

  <path d="M128 14l20 34a10 10 0 0 1-8.66 15H116.7a10 10 0 0 1-8.66-15z" fill="#0f172a"/>
  <path d="M128 24l12 21h-24z" fill="#f8fafc"/>
  <circle cx="128" cy="134" r="102" fill="url(#bg)" stroke="url(#ring)" stroke-width="8"/>
  <g clip-path="url(#wheelClip)">
    <path d="M128 134L128 46A88 88 0 0 1 190.23 71.77L128 134z" fill="#0b1220"/>
    <path d="M128 134L190.23 71.77A88 88 0 0 1 190.23 196.23L128 134z" fill="url(#noFill)"/>
    <path d="M128 134L190.23 196.23A88 88 0 0 1 65.77 196.23L128 134z" fill="#0b1220"/>
    <path d="M128 134L65.77 196.23A88 88 0 0 1 65.77 71.77L128 134z" fill="url(#yesFill)"/>
    <path d="M65.77 71.77l124.46 124.46M65.77 196.23l124.46-124.46" stroke="#0f172a" stroke-width="8" stroke-linecap="round" opacity="0.58"/>
  </g>
  <path d="M87 132l18 18 29-36" fill="none" stroke="#ffffff" stroke-width="11" stroke-linecap="round" stroke-linejoin="round"/>
  <path d="M152 108l32 32M184 108l-32 32" fill="none" stroke="#ffffff" stroke-width="11" stroke-linecap="round"/>
  <circle cx="128" cy="134" r="26" fill="#f8fafc"/>
  <circle cx="128" cy="134" r="12" fill="#0f172a"/>
  <circle cx="128" cy="134" r="5" fill="#67e8f9"/>
</svg>
