<svg xmlns="http://www.w3.org/2000/svg" width="1200" height="630" viewBox="0 0 1200 630" role="img" aria-labelledby="title desc">
  <title id="title">Yes and No Wheel</title>
  <desc id="desc">Professional brand image for Yes and No Wheel featuring a decision wheel mark and website address.</desc>
  <defs>
    <linearGradient id="bg" x1="80" y1="40" x2="1120" y2="590" gradientUnits="userSpaceOnUse">
      <stop offset="0" stop-color="#08111f"/>
      <stop offset="0.48" stop-color="#0f1f35"/>
      <stop offset="1" stop-color="#1f1038"/>
    </linearGradient>
    <linearGradient id="border" x1="110" y1="100" x2="1090" y2="530" gradientUnits="userSpaceOnUse">
      <stop offset="0" stop-color="#22d3ee" stop-opacity="0.5"/>
      <stop offset="0.5" stop-color="#93c5fd" stop-opacity="0.18"/>
      <stop offset="1" stop-color="#fb7185" stop-opacity="0.42"/>
    </linearGradient>
    <linearGradient id="ring" x1="155" y1="118" x2="425" y2="414" gradientUnits="userSpaceOnUse">
      <stop offset="0" stop-color="#22d3ee"/>
      <stop offset="0.5" stop-color="#38bdf8"/>
      <stop offset="1" stop-color="#fb7185"/>
    </linearGradient>
    <linearGradient id="yesFill" x1="185" y1="155" x2="348" y2="355" gradientUnits="userSpaceOnUse">
      <stop offset="0" stop-color="#34d399"/>
      <stop offset="1" stop-color="#14b8a6"/>
    </linearGradient>
    <linearGradient id="noFill" x1="410" y1="165" x2="260" y2="385" gradientUnits="userSpaceOnUse">
      <stop offset="0" stop-color="#fb7185"/>
      <stop offset="1" stop-color="#f97316"/>
    </linearGradient>
    <filter id="softShadow" x="-20%" y="-20%" width="140%" height="140%">
      <feDropShadow dx="0" dy="24" stdDeviation="30" flood-color="#020617" flood-opacity="0.32"/>
    </filter>
    <clipPath id="wheelClip">
      <circle cx="290" cy="315" r="132"/>
    </clipPath>
  </defs>

  <rect width="1200" height="630" rx="32" fill="url(#bg)"/>
  <rect x="32" y="32" width="1136" height="566" rx="30" fill="none" stroke="url(#border)" stroke-width="2"/>
  <circle cx="1048" cy="114" r="154" fill="#22d3ee" opacity="0.12"/>
  <circle cx="108" cy="544" r="190" fill="#fb7185" opacity="0.08"/>
  <circle cx="955" cy="545" r="214" fill="#8b5cf6" opacity="0.1"/>

  <g filter="url(#softShadow)">
    <path d="M290 110l31 55a15 15 0 0 1-13 22.5h-36a15 15 0 0 1-13-22.5z" fill="#0f172a"/>
    <path d="M290 124l19 34h-38z" fill="#f8fafc"/>
    <circle cx="290" cy="315" r="148" fill="#0f172a" stroke="url(#ring)" stroke-width="10"/>
    <g clip-path="url(#wheelClip)">
      <path d="M290 315L290 183A132 132 0 0 1 419.7 299L290 315z" fill="#0b1220"/>
      <path d="M290 315L419.7 299A132 132 0 0 1 290 447z" fill="url(#noFill)"/>
      <path d="M290 315L290 447A132 132 0 0 1 160.3 331L290 315z" fill="#0b1220"/>
      <path d="M290 315L160.3 331A132 132 0 0 1 290 183z" fill="url(#yesFill)"/>
      <path d="M290 183v264M160.3 331l259.4-32" stroke="#0f172a" stroke-width="11" stroke-linecap="round" opacity="0.7"/>
    </g>
    <path d="M224 311l30 30 47-57" fill="none" stroke="#ffffff" stroke-width="16" stroke-linecap="round" stroke-linejoin="round"/>
    <path d="M332 275l56 56M388 275l-56 56" fill="none" stroke="#ffffff" stroke-width="16" stroke-linecap="round"/>
    <circle cx="290" cy="315" r="39" fill="#f8fafc" opacity="0.98"/>
    <circle cx="290" cy="315" r="20" fill="#0f172a"/>
    <circle cx="290" cy="315" r="9" fill="#22d3ee"/>
  </g>

  <text x="510" y="255" fill="#f8fafc" font-family="Segoe UI, Arial, sans-serif" font-size="86" font-weight="800" letter-spacing="-1.8">
    Yes
  </text>
  <text x="666" y="255" fill="#67e8f9" font-family="Segoe UI, Arial, sans-serif" font-size="86" font-weight="800" letter-spacing="-1.8">
    &amp;
  </text>
  <text x="730" y="255" fill="#f8fafc" font-family="Segoe UI, Arial, sans-serif" font-size="86" font-weight="800" letter-spacing="-1.8">
    No Wheel
  </text>
  <text x="510" y="338" fill="#cbd5e1" font-family="Segoe UI, Arial, sans-serif" font-size="35">
    Professional random decision spinner for quick choices,
  </text>
  <text x="510" y="387" fill="#cbd5e1" font-family="Segoe UI, Arial, sans-serif" font-size="35">
    games, classrooms, and creative prompts.
  </text>

  <g>
    <rect x="510" y="444" width="316" height="74" rx="18" fill="#0f172a" stroke="#67e8f9" stroke-opacity="0.35" stroke-width="2"/>
    <text x="541" y="492" fill="#f8fafc" font-family="Segoe UI, Arial, sans-serif" font-size="29" font-weight="700" letter-spacing="0.5">
      yesandnowheel.com
    </text>
  </g>
</svg>
