<svg xmlns="http://www.w3.org/2000/svg" width="1200" height="630" viewBox="0 0 1200 630" role="img" aria-labelledby="title desc">
  <title id="title">YesAndNoWheel.com</title>
  <desc id="desc">Free spinning wheels for decisions, games, and random picks.</desc>
  <defs>
    <linearGradient id="bg" x1="0" y1="0" x2="1" y2="1">
      <stop offset="0%" stop-color="#0a0a1a"/>
      <stop offset="50%" stop-color="#1a103c"/>
      <stop offset="100%" stop-color="#0d1b2a"/>
    </linearGradient>
    <linearGradient id="ring" x1="0" y1="0" x2="1" y2="1">
      <stop offset="0%" stop-color="#6366f1"/>
      <stop offset="50%" stop-color="#8b5cf6"/>
      <stop offset="100%" stop-color="#a78bfa"/>
    </linearGradient>
  </defs>

  <rect width="1200" height="630" fill="url(#bg)"/>
  <circle cx="255" cy="315" r="150" fill="#111128" stroke="url(#ring)" stroke-width="14"/>
  <path d="M255 165 A150 150 0 0 1 392 252 L255 315 Z" fill="#ef4444"/>
  <path d="M392 252 A150 150 0 0 1 255 465 L255 315 Z" fill="#10b981"/>
  <path d="M255 465 A150 150 0 0 1 118 252 L255 315 Z" fill="#f59e0b"/>
  <path d="M118 252 A150 150 0 0 1 255 165 L255 315 Z" fill="#3b82f6"/>
  <circle cx="255" cy="315" r="44" fill="#0a0a1a" stroke="#a78bfa" stroke-width="8"/>
  <path d="M255 116 l20 34 h-40 z" fill="#ffffff"/>

  <text x="470" y="250" fill="#f0f0ff" font-family="Arial, Helvetica, sans-serif" font-size="74" font-weight="700">
    YesAndNoWheel
  </text>
  <text x="470" y="330" fill="#a0a0cc" font-family="Arial, Helvetica, sans-serif" font-size="34">
    Free decision wheels, random pickers, and party spinners
  </text>
  <text x="470" y="385" fill="#a0a0cc" font-family="Arial, Helvetica, sans-serif" font-size="34">
    for quick choices, classroom tools, and fun games.
  </text>

  <rect x="470" y="430" rx="16" ry="16" width="270" height="72" fill="#111128" stroke="#6366f1" stroke-width="2"/>
  <text x="505" y="476" fill="#ffffff" font-family="Arial, Helvetica, sans-serif" font-size="30" font-weight="700">
    yesandnowheel.com
  </text>
</svg>
