<svg xmlns="http://www.w3.org/2000/svg" width="1200" height="630" viewBox="0 0 1200 630" role="img" aria-labelledby="title desc">
  <title id="title">Yes and No Wheel</title>
  <desc id="desc">Premium brand image for Yes and No Wheel with a modern decision wheel mark.</desc>
  <defs>
    <linearGradient id="bg" x1="84" y1="34" x2="1118" y2="596" gradientUnits="userSpaceOnUse">
      <stop offset="0" stop-color="#08111f"/>
      <stop offset="0.5" stop-color="#11233c"/>
      <stop offset="1" stop-color="#261138"/>
    </linearGradient>
    <linearGradient id="frame" x1="74" y1="72" x2="1096" y2="560" gradientUnits="userSpaceOnUse">
      <stop offset="0" stop-color="#6366f1" stop-opacity="0.48"/>
      <stop offset="0.5" stop-color="#8b5cf6" stop-opacity="0.16"/>
      <stop offset="1" stop-color="#a78bfa" stop-opacity="0.42"/>
    </linearGradient>
    <linearGradient id="markBg" x1="148" y1="118" x2="430" y2="414" gradientUnits="userSpaceOnUse">
      <stop offset="0" stop-color="#111128"/>
      <stop offset="1" stop-color="#1a1a3e"/>
    </linearGradient>
    <linearGradient id="ring" x1="156" y1="120" x2="424" y2="404" gradientUnits="userSpaceOnUse">
      <stop offset="0" stop-color="#6366f1"/>
      <stop offset="0.52" stop-color="#8b5cf6"/>
      <stop offset="1" stop-color="#a78bfa"/>
    </linearGradient>
    <linearGradient id="yesFill" x1="178" y1="154" x2="312" y2="338" gradientUnits="userSpaceOnUse">
      <stop offset="0" stop-color="#6366f1"/>
      <stop offset="1" stop-color="#7c3aed"/>
    </linearGradient>
    <linearGradient id="noFill" x1="406" y1="170" x2="258" y2="374" gradientUnits="userSpaceOnUse">
      <stop offset="0" stop-color="#8b5cf6"/>
      <stop offset="1" stop-color="#a78bfa"/>
    </linearGradient>
    <filter id="shadow" x="-20%" y="-20%" width="140%" height="140%">
      <feDropShadow dx="0" dy="24" stdDeviation="28" flood-color="#020617" flood-opacity="0.32"/>
    </filter>
    <clipPath id="wheelClip">
      <circle cx="290" cy="314" r="132"/>
    </clipPath>
  </defs>

  <rect width="1200" height="630" rx="32" fill="url(#bg)"/>
  <rect x="32" y="32" width="1136" height="566" rx="30" fill="none" stroke="url(#frame)" stroke-width="2"/>
  <circle cx="1050" cy="110" r="156" fill="#6366f1" opacity="0.11"/>
  <circle cx="118" cy="546" r="194" fill="#8b5cf6" opacity="0.08"/>
  <circle cx="958" cy="540" r="220" fill="#a78bfa" opacity="0.08"/>

  <g filter="url(#shadow)">
    <path d="M290 108l30 52a15 15 0 0 1-12.99 22.5h-34.02A15 15 0 0 1 260 160z" fill="#0f172a"/>
    <path d="M290 121l18 31h-36z" fill="#f8fafc"/>
    <circle cx="290" cy="314" r="148" fill="url(#markBg)" stroke="url(#ring)" stroke-width="10"/>
    <g clip-path="url(#wheelClip)">
      <path d="M290 314L290 182A132 132 0 0 1 383.34 220.66L290 314z" fill="#0b1220"/>
      <path d="M290 314L383.34 220.66A132 132 0 0 1 383.34 407.34L290 314z" fill="url(#noFill)"/>
      <path d="M290 314L383.34 407.34A132 132 0 0 1 196.66 407.34L290 314z" fill="#0b1220"/>
      <path d="M290 314L196.66 407.34A132 132 0 0 1 196.66 220.66L290 314z" fill="url(#yesFill)"/>
      <path d="M196.66 220.66l186.68 186.68M196.66 407.34l186.68-186.68" stroke="#0f172a" stroke-width="10" stroke-linecap="round" opacity="0.58"/>
    </g>
    <path d="M229 311l28 28 45-55" fill="none" stroke="#ffffff" stroke-width="16" stroke-linecap="round" stroke-linejoin="round"/>
    <path d="M326 276l48 48M374 276l-48 48" fill="none" stroke="#ffffff" stroke-width="16" stroke-linecap="round"/>
    <circle cx="290" cy="314" r="39" fill="#f8fafc"/>
    <circle cx="290" cy="314" r="18" fill="#0f172a"/>
    <circle cx="290" cy="314" r="8" fill="#a78bfa"/>
  </g>

  <text x="510" y="248" fill="#f8fafc" font-family="Segoe UI, Arial, sans-serif" font-size="84" font-weight="800" letter-spacing="-1.6">
    Yes
  </text>
  <text x="668" y="248" fill="#a78bfa" font-family="Segoe UI, Arial, sans-serif" font-size="84" font-weight="800" letter-spacing="-1.6">
    &amp;
  </text>
  <text x="734" y="248" fill="#f8fafc" font-family="Segoe UI, Arial, sans-serif" font-size="84" font-weight="800" letter-spacing="-1.6">
    No Wheel
  </text>
  <text x="510" y="334" fill="#cbd5e1" font-family="Segoe UI, Arial, sans-serif" font-size="34">
    Free yes-or-no spinner for quick choices,
  </text>
  <text x="510" y="382" fill="#cbd5e1" font-family="Segoe UI, Arial, sans-serif" font-size="34">
    games, classrooms, and everyday decisions.
  </text>

  <rect x="510" y="440" width="308" height="72" rx="18" fill="#111128" stroke="#8b5cf6" stroke-opacity="0.32" stroke-width="2"/>
  <text x="542" y="486" fill="#f8fafc" font-family="Segoe UI, Arial, sans-serif" font-size="28" font-weight="700" letter-spacing="0.4">
    yesandnowheel.com
  </text>
</svg>
